<svg width="16" height="20" viewBox="0 0 16 20" fill="none" xmlns="http://www.w3.org/2000/svg">
<path d="M10.59 0.59C10.21 0.21 9.7 0 9.17 0H2C0.9 0 0 0.9 0 2V18C0 19.1 0.89 20 1.99 20H14C15.1 20 16 19.1 16 18V6.83C16 6.3 15.79 5.79 15.41 5.42L10.59 0.59ZM11 14H9V16C9 16.55 8.55 17 8 17C7.45 17 7 16.55 7 16V14H5C4.45 14 4 13.55 4 13C4 12.45 4.45 12 5 12H7V10C7 9.45 7.45 9 8 9C8.55 9 9 9.45 9 10V12H11C11.55 12 12 12.45 12 13C12 13.55 11.55 14 11 14ZM9 6V1.5L14.5 7H10C9.45 7 9 6.55 9 6Z" fill="#94A3B8"/>
</svg>
