<svg width="20" height="24" viewBox="0 0 20 24" fill="none" xmlns="http://www.w3.org/2000/svg">
<path d="M16.12 8.66666H14V2C14 1.26666 13.4 0.666664 12.6666 0.666664H7.33329C6.59996 0.666664 5.99996 1.26666 5.99996 2V8.66666H3.87996C2.69329 8.66666 2.09329 10.1067 2.93329 10.9467L9.05329 17.0667C9.57329 17.5867 10.4133 17.5867 10.9333 17.0667L17.0533 10.9467C17.8933 10.1067 17.3066 8.66666 16.12 8.66666ZM0.666626 22C0.666626 22.7333 1.26663 23.3333 1.99996 23.3333H18C18.7333 23.3333 19.3333 22.7333 19.3333 22C19.3333 21.2667 18.7333 20.6667 18 20.6667H1.99996C1.26663 20.6667 0.666626 21.2667 0.666626 22Z" fill="#94A3B8"/>
</svg>
