<svg width="26" height="28" viewBox="0 0 26 28" fill="none" xmlns="http://www.w3.org/2000/svg">
<path d="M22.9067 15.3067C22.96 14.88 23 14.4533 23 14C23 13.5467 22.96 13.12 22.9067 12.6933L25.72 10.4933C25.9734 10.2933 26.04 9.93333 25.88 9.64L23.2134 5.02667C23.0534 4.73333 22.6934 4.62667 22.4 4.73333L19.08 6.06667C18.3867 5.53333 17.64 5.09333 16.8267 4.76L16.32 1.22667C16.28 0.906667 16 0.666667 15.6667 0.666667H10.3334C10 0.666667 9.72003 0.906667 9.68003 1.22667L9.17336 4.76C8.36003 5.09333 7.61336 5.54667 6.92003 6.06667L3.60003 4.73333C3.29336 4.61333 2.9467 4.73333 2.7867 5.02667L0.12003 9.64C-0.0533034 9.93333 0.0266968 10.2933 0.28003 10.4933L3.09336 12.6933C3.04003 13.12 3.00003 13.56 3.00003 14C3.00003 14.44 3.04003 14.88 3.09336 15.3067L0.28003 17.5067C0.0266968 17.7067 -0.03997 18.0667 0.12003 18.36L2.7867 22.9733C2.9467 23.2667 3.3067 23.3733 3.60003 23.2667L6.92003 21.9333C7.61336 22.4667 8.36003 22.9067 9.17336 23.24L9.68003 26.7733C9.72003 27.0933 10 27.3333 10.3334 27.3333H15.6667C16 27.3333 16.28 27.0933 16.32 26.7733L16.8267 23.24C17.64 22.9067 18.3867 22.4533 19.08 21.9333L22.4 23.2667C22.7067 23.3867 23.0534 23.2667 23.2134 22.9733L25.88 18.36C26.04 18.0667 25.9734 17.7067 25.72 17.5067L22.9067 15.3067ZM13 18.6667C10.4267 18.6667 8.33336 16.5733 8.33336 14C8.33336 11.4267 10.4267 9.33333 13 9.33333C15.5734 9.33333 17.6667 11.4267 17.6667 14C17.6667 16.5733 15.5734 18.6667 13 18.6667Z" fill="#94A3B8"/>
</svg>
