<svg width="20" height="23" viewBox="0 0 20 23" fill="none" xmlns="http://www.w3.org/2000/svg">
<path d="M7.33329 17.1233H12.6666C13.4 17.1233 14 16.5233 14 15.79V9.12334H16.12C17.3066 9.12334 17.9066 7.68334 17.0666 6.84334L10.9466 0.723336C10.4266 0.203336 9.58663 0.203336 9.06663 0.723336L2.94663 6.84334C2.10663 7.68334 2.69329 9.12334 3.87996 9.12334H5.99996V15.79C5.99996 16.5233 6.59996 17.1233 7.33329 17.1233ZM1.99996 19.79H18C18.7333 19.79 19.3333 20.39 19.3333 21.1233C19.3333 21.8567 18.7333 22.4567 18 22.4567H1.99996C1.26663 22.4567 0.666626 21.8567 0.666626 21.1233C0.666626 20.39 1.26663 19.79 1.99996 19.79Z" fill="#94A3B8"/>
</svg>
