<svg width="28" height="28" viewBox="0 0 28 28" fill="none" xmlns="http://www.w3.org/2000/svg">
<path d="M14 0.666656C6.65196 0.666656 0.666626 6.65199 0.666626 14C0.666626 21.348 6.65196 27.3333 14 27.3333C21.348 27.3333 27.3333 21.348 27.3333 14C27.3333 6.65199 21.348 0.666656 14 0.666656ZM14 3.33332C19.9068 3.33332 24.6666 8.09316 24.6666 14C24.6666 19.9068 19.9068 24.6667 14 24.6667C8.09313 24.6667 3.33329 19.9068 3.33329 14C3.33329 8.09316 8.09313 3.33332 14 3.33332ZM12.6666 7.33332V9.99999H15.3333V7.33332H12.6666ZM12.6666 12.6667V20.6667H15.3333V12.6667H12.6666Z" fill="#94A3B8"/>
</svg>
