<svg xmlns:xlink="http://www.w3.org/1999/xlink" xmlns="http://www.w3.org/2000/svg" xlink="http://www.w3.org/1999/xlink" viewBox="0 0 142.29 129.02" width="564.6603627344597"  height="512" ><defs><linearGradient id="a3a1f6a37-e448-4986-92c6-6f74c4fb08d6" x1="92.82" y1="124.19" x2="105.86" y2="55.94" gradientUnits="userSpaceOnUse"><stop offset="0" stop-color="#38ccff"/><stop offset="1" stop-color="#004da6"/></linearGradient><linearGradient id="cf45ff1fb-5f47-45db-b02d-947848452c97" x1="79.4" y1="24.99" x2="178.6" y2="69.21" href="#a3a1f6a37-e448-4986-92c6-6f74c4fb08d6"/><linearGradient id="b11dd1776-824e-4f31-b2f5-21b49455923f" x1="16250.46" y1="-4132.75" x2="16263.5" y2="-4201" gradientTransform="rotate(180 8149.965 -2063.96)" gradientUnits="userSpaceOnUse"><stop offset="0" stop-color="#ffd500"/><stop offset="1" stop-color="#e07800"/></linearGradient><linearGradient id="d35d7ddbf-01b5-4f7e-86ac-76dc4d41d41f" x1="16237.04" y1="-4231.95" x2="16336.25" y2="-4187.73" href="#b11dd1776-824e-4f31-b2f5-21b49455923f"/></defs><path d="M139.4 53.72l-24.78-42.93A21.64 21.64 0 0 0 95.92 0h-10L67.73 54.18h41.86L63.66 129h32.26a21.64 21.64 0 0 0 18.7-10.79l24.78-42.9a21.62 21.62 0 0 0 0-21.59z" fill="url(#a3a1f6a37-e448-4986-92c6-6f74c4fb08d6)"/><path d="M139.4 53.72l-24.78-42.93A21.64 21.64 0 0 0 95.92 0h-10L67.73 54.18h55.18c16.49 0 21.65 12.19 15.87 22.2l.62-1.07a21.62 21.62 0 0 0 0-21.59z" fill="url(#cf45ff1fb-5f47-45db-b02d-947848452c97)"/><path d="M2.88 75.31l24.79 42.92A21.62 21.62 0 0 0 46.36 129h10l18.19-54.16H32.7L78.62 0H46.36a21.62 21.62 0 0 0-18.69 10.79L2.88 53.72a21.67 21.67 0 0 0 0 21.59z" fill="url(#b11dd1776-824e-4f31-b2f5-21b49455923f)"/><path d="M2.88 75.31l24.79 42.92A21.62 21.62 0 0 0 46.36 129h10l18.19-54.16H19.37c-16.49 0-21.65-12.19-15.87-22.2l-.62 1.08a21.67 21.67 0 0 0 0 21.59z" fill="url(#d35d7ddbf-01b5-4f7e-86ac-76dc4d41d41f)"/></svg>